<svg width="current" height="current" viewBox="0 0 34 34" fill="none" xmlns="http://www.w3.org/2000/svg">
    <path fill-rule="evenodd" clip-rule="evenodd"
        d="M10.6066 23.3345C10.3137 23.0416 10.3137 22.5668 10.6066 22.2739L22.2739 10.6066C22.5668 10.3137 23.0416 10.3137 23.3345 10.6066C23.6274 10.8995 23.6274 11.3744 23.3345 11.6673L11.6673 23.3345C11.3744 23.6274 10.8995 23.6274 10.6066 23.3345Z"
        fill="#000" />
    <path fill-rule="evenodd" clip-rule="evenodd"
        d="M10.6066 10.6066C10.8995 10.3137 11.3744 10.3137 11.6673 10.6066L23.3345 22.2739C23.6274 22.5668 23.6274 23.0416 23.3345 23.3345C23.0416 23.6274 22.5668 23.6274 22.2739 23.3345L10.6066 11.6673C10.3137 11.3744 10.3137 10.8995 10.6066 10.6066Z"
        fill="#000" />
</svg>